<?xml version="1.0" encoding="UTF-8"?>
<svg id="Layer_2" data-name="Layer 2" xmlns="http://www.w3.org/2000/svg" viewBox="0 0 405.02 462.34">
  <g id="Layer_3" data-name="Layer 3">
    <g>
      <g>
        <path d="m404.95,435.55c0,3.58,0,7.16,0,10.74-.07,13.21-11.42,19.99-23.15,13.65-17.31-9.35-34.52-18.87-51.77-28.32-39.44-21.62-78.91-43.19-118.29-64.93-6.28-3.47-11.97-3.56-18.27-.09-56.52,31.11-113.11,62.09-169.69,93.09-8.95,4.9-17.81,2.85-21.99-5.27-1.03-1.99-1.6-4.42-1.66-6.67-.2-7.84.03-15.69-.11-23.54-.12-6.78,2.85-11.49,8.72-14.7,35.84-19.61,71.65-39.28,107.47-58.92,25.81-14.15,51.66-28.24,77.42-42.49,5.97-3.3,11.54-3.42,17.55-.12,61.61,33.85,123.25,67.64,184.91,101.4,6,3.29,9.19,8.03,8.91,15.01-.15,3.71-.03,7.43-.03,11.15Z" style="fill: #12436a; stroke-width: 0px;"/>
        <path d="m404.95,130.11c0,3.99.07,7.99-.02,11.98-.23,11.31-11.67,18.21-21.82,12.9-12.19-6.38-24.17-13.13-36.24-19.74-44.88-24.6-89.8-49.13-134.59-73.89-6.9-3.82-12.9-3.68-19.74.09-56.38,31.08-112.86,61.97-169.31,92.91-8.7,4.77-18.22,2.05-21.94-6.43-.85-1.94-1.16-4.25-1.19-6.4-.13-7.84.03-15.69-.07-23.54-.09-6.5,3-10.93,8.51-13.95,26.9-14.75,53.79-29.51,80.69-44.26C123.84,40.78,158.49,21.87,193.05,2.77c6.22-3.44,11.97-3.82,18.29-.35,61.36,33.75,122.75,67.43,184.18,101.04,6.46,3.54,9.9,8.41,9.47,15.91-.21,3.57-.04,7.16-.04,10.74Z" style="fill: #12436a; stroke-width: 0px;"/>
      </g>
      <path d="m404.66,227.58c.1-.86.16-1.74.17-2.67.01-7.57-.02-15.14,0-22.72.01-3.55-.96-6.54-2.86-8.99-.02-.03-.04-.06-.06-.09,0,0,0,0,0,0-1.19-1.61-2.75-3-4.71-4.14-1.77-1.04-3.58-2.01-5.37-3.03,0-.03.02-.06.03-.09-2.79-1.54-5.58-3.08-8.37-4.62-.58-.32-1.15-.66-1.74-.98-2.49-1.37-4.97-2.73-7.46-4.09-9.4-5.19-18.79-10.38-28.2-15.55-.17-.1-.35-.19-.52-.29,0,.02-.01.04-.01.06-.37-.23-.75-.45-1.12-.68-.02.02-.04.04-.06.06-1.08-.66-2.16-1.3-3.23-1.96-6.46-3.95-12.45-4.18-18.9-.1-6.16,3.9-12.63,7.31-18.92,11-.59.35-1.15.72-1.67,1.12l-67.75,38.88-.37.66-20.53,11.78s0,.05,0,.07l-9.38,5.38-30.61-17.57h0s-28.96-16.62-28.96-16.62l-11.75-6.74-27.05-15.52c-.53-.4-1.08-.77-1.67-1.12-6.29-3.69-12.76-7.1-18.92-11-6.45-4.08-12.44-3.85-18.9.1-1.07.66-2.16,1.3-3.23,1.96-.02-.02-.04-.04-.06-.06-.37.23-.75.45-1.12.68,0-.02-.01-.04-.01-.06-.17.1-.35.19-.52.29-9.41,5.17-18.8,10.36-28.2,15.55-2.49,1.36-4.97,2.73-7.46,4.09-.58.32-1.15.66-1.74.98-2.79,1.54-5.58,3.08-8.37,4.62,0,.03.02.06.03.09-1.79,1.01-3.6,1.99-5.37,3.03-.65.38-1.25.78-1.81,1.21-.07.06-.13.12-.21.17-.5.39-.96.8-1.39,1.23-.02.02-.04.05-.07.07-2.61,2.65-3.97,6.05-3.96,10.22.02,7.57-.01,15.14,0,22.72,0,.92.06,1.81.17,2.67l-.34,164.89c1.9-.89,3.04-1.35,4.11-1.93,8.08-4.43,16.14-8.89,24.22-13.32.36-.17.7-.34,1.02-.51.39-.21.74-.42,1.08-.63,5.7-3.12,11.39-6.25,17.12-9.31,2.88-1.54,3.72-3.28,3.71-6.41-.1-44.06-.04-88.11-.13-132.17,0-.75.05-18.75.16-28.62,17.78,8.08,34.14,18.59,38.4,21.39-.01.02-.03.04-.04.06.34.19.67.39,1.01.58,0,0,0,0,0,0,.06.04.13.07.19.11h0c33.75,19.52,67.54,38.97,101.27,58.52.28.16.52.24.78.37l4.68,2.68c.3.15.6.28.91.39,0,0,0,0,0,0,1.9.68,4,.59,5.84-.29l3.95-2.11c.84-.18,1.69-.48,2.66-1.04,30.85-17.88,66.71-39.25,99.47-58.46l1.46-.38c.06-.04.13-.07.19-.11.66-.44,4.3-2.87,9.77-6.19,3.74-2.18,7.43-4.33,11.04-6.42,5.69-3.16,12.13-6.51,18.76-9.51.11,9.76.16,28.28.16,29.04-.09,44.06-.03,88.11-.13,132.17,0,3.13.83,4.88,3.71,6.41,5.73,3.06,11.42,6.19,17.12,9.31.34.21.69.42,1.08.63.32.18.67.34,1.02.51,8.08,4.44,16.14,8.89,24.22,13.32,1.07.59,2.21,1.04,4.11,1.93l-.34-164.89Z" style="fill: #e1aa25; stroke-width: 0px;"/>
    </g>
  </g>
</svg>