<svg xmlns="http://www.w3.org/2000/svg" width="255" height="205" viewBox="0 0 255 205">
  <g id="Group_32" data-name="Group 32" transform="translate(-1634 -1383)">
    <rect id="Rect_1" x="1632.5" y="1381.5" width="5" height="5" transform="rotate(45 1634 1383)" fill="#0062cc"/>
    <rect id="Rect_2" x="1657.5" y="1381.5" width="5" height="5" transform="rotate(45 1659 1383)" fill="#0062cc"/>
    <rect id="Rect_3" x="1682.5" y="1381.5" width="5" height="5" transform="rotate(45 1684 1383)" fill="#0062cc"/>
    <rect id="Rect_4" x="1707.5" y="1381.5" width="5" height="5" transform="rotate(45 1709 1383)" fill="#0062cc"/>
    <rect id="Rect_5" x="1732.5" y="1381.5" width="5" height="5" transform="rotate(45 1734 1383)" fill="#0062cc"/>
    <rect id="Rect_6" x="1757.5" y="1381.5" width="5" height="5" transform="rotate(45 1759 1383)" fill="#0062cc"/>
    <rect id="Rect_7" x="1782.5" y="1381.5" width="5" height="5" transform="rotate(45 1784 1383)" fill="#0062cc"/>
    <rect id="Rect_8" x="1807.5" y="1381.5" width="5" height="5" transform="rotate(45 1809 1383)" fill="#0062cc"/>
    <rect id="Rect_9" x="1832.5" y="1381.5" width="5" height="5" transform="rotate(45 1834 1383)" fill="#0062cc"/>
    <rect id="Rect_10" x="1857.5" y="1381.5" width="5" height="5" transform="rotate(45 1859 1383)" fill="#0062cc"/>
    <rect id="Rect_11" x="1882.5" y="1381.5" width="5" height="5" transform="rotate(45 1884 1383)" fill="#0062cc"/>
    <rect id="Rect_12" x="1632.5" y="1406.5" width="5" height="5" transform="rotate(45 1634 1408)" fill="#0062cc"/>
    <rect id="Rect_13" x="1657.5" y="1406.5" width="5" height="5" transform="rotate(45 1659 1408)" fill="#0062cc"/>
    <rect id="Rect_14" x="1682.5" y="1406.5" width="5" height="5" transform="rotate(45 1684 1408)" fill="#0062cc"/>
    <rect id="Rect_15" x="1707.5" y="1406.5" width="5" height="5" transform="rotate(45 1709 1408)" fill="#0062cc"/>
    <rect id="Rect_16" x="1732.5" y="1406.5" width="5" height="5" transform="rotate(45 1734 1408)" fill="#0062cc"/>
    <rect id="Rect_17" x="1757.5" y="1406.5" width="5" height="5" transform="rotate(45 1759 1408)" fill="#0062cc"/>
    <rect id="Rect_18" x="1782.5" y="1406.5" width="5" height="5" transform="rotate(45 1784 1408)" fill="#0062cc"/>
    <rect id="Rect_19" x="1807.5" y="1406.5" width="5" height="5" transform="rotate(45 1809 1408)" fill="#0062cc"/>
    <rect id="Rect_20" x="1832.5" y="1406.5" width="5" height="5" transform="rotate(45 1834 1408)" fill="#0062cc"/>
    <rect id="Rect_21" x="1857.5" y="1406.5" width="5" height="5" transform="rotate(45 1859 1408)" fill="#0062cc"/>
    <rect id="Rect_22" x="1882.5" y="1406.5" width="5" height="5" transform="rotate(45 1884 1408)" fill="#0062cc"/>
    <rect id="Rect_23" x="1632.5" y="1431.5" width="5" height="5" transform="rotate(45 1634 1433)" fill="#0062cc"/>
    <rect id="Rect_24" x="1657.5" y="1431.5" width="5" height="5" transform="rotate(45 1659 1433)" fill="#0062cc"/>
    <rect id="Rect_25" x="1682.5" y="1431.5" width="5" height="5" transform="rotate(45 1684 1433)" fill="#0062cc"/>
    <rect id="Rect_26" x="1707.5" y="1431.5" width="5" height="5" transform="rotate(45 1709 1433)" fill="#0062cc"/>
    <rect id="Rect_27" x="1732.5" y="1431.5" width="5" height="5" transform="rotate(45 1734 1433)" fill="#0062cc"/>
    <rect id="Rect_28" x="1757.5" y="1431.5" width="5" height="5" transform="rotate(45 1759 1433)" fill="#0062cc"/>
    <rect id="Rect_29" x="1782.5" y="1431.5" width="5" height="5" transform="rotate(45 1784 1433)" fill="#0062cc"/>
    <rect id="Rect_30" x="1807.5" y="1431.5" width="5" height="5" transform="rotate(45 1809 1433)" fill="#0062cc"/>
    <rect id="Rect_31" x="1832.5" y="1431.5" width="5" height="5" transform="rotate(45 1834 1433)" fill="#0062cc"/>
    <rect id="Rect_32" x="1857.5" y="1431.5" width="5" height="5" transform="rotate(45 1859 1433)" fill="#0062cc"/>
    <rect id="Rect_33" x="1882.5" y="1431.5" width="5" height="5" transform="rotate(45 1884 1433)" fill="#0062cc"/>
    <rect id="Rect_34" x="1632.5" y="1456.5" width="5" height="5" transform="rotate(45 1634 1458)" fill="#0062cc"/>
    <rect id="Rect_35" x="1657.5" y="1456.5" width="5" height="5" transform="rotate(45 1659 1458)" fill="#0062cc"/>
    <rect id="Rect_36" x="1682.5" y="1456.5" width="5" height="5" transform="rotate(45 1684 1458)" fill="#0062cc"/>
    <rect id="Rect_37" x="1707.5" y="1456.5" width="5" height="5" transform="rotate(45 1709 1458)" fill="#0062cc"/>
    <rect id="Rect_38" x="1732.5" y="1456.5" width="5" height="5" transform="rotate(45 1734 1458)" fill="#0062cc"/>
    <rect id="Rect_39" x="1757.5" y="1456.5" width="5" height="5" transform="rotate(45 1759 1458)" fill="#0062cc"/>
    <rect id="Rect_40" x="1782.5" y="1456.5" width="5" height="5" transform="rotate(45 1784 1458)" fill="#0062cc"/>
    <rect id="Rect_41" x="1807.5" y="1456.5" width="5" height="5" transform="rotate(45 1809 1458)" fill="#0062cc"/>
    <rect id="Rect_42" x="1832.5" y="1456.5" width="5" height="5" transform="rotate(45 1834 1458)" fill="#0062cc"/>
    <rect id="Rect_43" x="1857.5" y="1456.5" width="5" height="5" transform="rotate(45 1859 1458)" fill="#0062cc"/>
    <rect id="Rect_44" x="1882.5" y="1456.5" width="5" height="5" transform="rotate(45 1884 1458)" fill="#0062cc"/>
    <rect id="Rect_45" x="1632.5" y="1481.5" width="5" height="5" transform="rotate(45 1634 1483)" fill="#0062cc"/>
    <rect id="Rect_46" x="1657.5" y="1481.5" width="5" height="5" transform="rotate(45 1659 1483)" fill="#0062cc"/>
    <rect id="Rect_47" x="1682.5" y="1481.5" width="5" height="5" transform="rotate(45 1684 1483)" fill="#0062cc"/>
    <rect id="Rect_48" x="1707.5" y="1481.5" width="5" height="5" transform="rotate(45 1709 1483)" fill="#0062cc"/>
    <rect id="Rect_49" x="1732.5" y="1481.5" width="5" height="5" transform="rotate(45 1734 1483)" fill="#0062cc"/>
    <rect id="Rect_50" x="1757.5" y="1481.5" width="5" height="5" transform="rotate(45 1759 1483)" fill="#0062cc"/>
    <rect id="Rect_51" x="1782.5" y="1481.5" width="5" height="5" transform="rotate(45 1784 1483)" fill="#0062cc"/>
    <rect id="Rect_52" x="1807.5" y="1481.5" width="5" height="5" transform="rotate(45 1809 1483)" fill="#0062cc"/>
    <rect id="Rect_53" x="1832.5" y="1481.5" width="5" height="5" transform="rotate(45 1834 1483)" fill="#0062cc"/>
    <rect id="Rect_54" x="1857.5" y="1481.5" width="5" height="5" transform="rotate(45 1859 1483)" fill="#0062cc"/>
    <rect id="Rect_55" x="1882.5" y="1481.5" width="5" height="5" transform="rotate(45 1884 1483)" fill="#0062cc"/>
    <rect id="Rect_56" x="1632.5" y="1506.5" width="5" height="5" transform="rotate(45 1634 1508)" fill="#0062cc"/>
    <rect id="Rect_57" x="1657.5" y="1506.5" width="5" height="5" transform="rotate(45 1659 1508)" fill="#0062cc"/>
    <rect id="Rect_58" x="1682.5" y="1506.5" width="5" height="5" transform="rotate(45 1684 1508)" fill="#0062cc"/>
    <rect id="Rect_59" x="1707.5" y="1506.5" width="5" height="5" transform="rotate(45 1709 1508)" fill="#0062cc"/>
    <rect id="Rect_60" x="1732.5" y="1506.5" width="5" height="5" transform="rotate(45 1734 1508)" fill="#0062cc"/>
    <rect id="Rect_61" x="1757.5" y="1506.5" width="5" height="5" transform="rotate(45 1759 1508)" fill="#0062cc"/>
    <rect id="Rect_62" x="1782.5" y="1506.5" width="5" height="5" transform="rotate(45 1784 1508)" fill="#0062cc"/>
    <rect id="Rect_63" x="1807.5" y="1506.5" width="5" height="5" transform="rotate(45 1809 1508)" fill="#0062cc"/>
    <rect id="Rect_64" x="1832.5" y="1506.5" width="5" height="5" transform="rotate(45 1834 1508)" fill="#0062cc"/>
    <rect id="Rect_65" x="1857.5" y="1506.5" width="5" height="5" transform="rotate(45 1859 1508)" fill="#0062cc"/>
    <rect id="Rect_66" x="1882.5" y="1506.5" width="5" height="5" transform="rotate(45 1884 1508)" fill="#0062cc"/>
    <rect id="Rect_67" x="1632.5" y="1531.5" width="5" height="5" transform="rotate(45 1634 1533)" fill="#0062cc"/>
    <rect id="Rect_68" x="1657.5" y="1531.5" width="5" height="5" transform="rotate(45 1659 1533)" fill="#0062cc"/>
    <rect id="Rect_69" x="1682.5" y="1531.5" width="5" height="5" transform="rotate(45 1684 1533)" fill="#0062cc"/>
    <rect id="Rect_70" x="1707.5" y="1531.5" width="5" height="5" transform="rotate(45 1709 1533)" fill="#0062cc"/>
    <rect id="Rect_71" x="1732.5" y="1531.5" width="5" height="5" transform="rotate(45 1734 1533)" fill="#0062cc"/>
    <rect id="Rect_72" x="1757.5" y="1531.5" width="5" height="5" transform="rotate(45 1759 1533)" fill="#0062cc"/>
    <rect id="Rect_73" x="1782.5" y="1531.5" width="5" height="5" transform="rotate(45 1784 1533)" fill="#0062cc"/>
    <rect id="Rect_74" x="1807.5" y="1531.5" width="5" height="5" transform="rotate(45 1809 1533)" fill="#0062cc"/>
    <rect id="Rect_75" x="1832.5" y="1531.5" width="5" height="5" transform="rotate(45 1834 1533)" fill="#0062cc"/>
    <rect id="Rect_76" x="1857.5" y="1531.5" width="5" height="5" transform="rotate(45 1859 1533)" fill="#0062cc"/>
    <rect id="Rect_77" x="1882.5" y="1531.5" width="5" height="5" transform="rotate(45 1884 1533)" fill="#0062cc"/>
    <rect id="Rect_78" x="1632.5" y="1556.5" width="5" height="5" transform="rotate(45 1634 1558)" fill="#0062cc"/>
    <rect id="Rect_79" x="1657.5" y="1556.5" width="5" height="5" transform="rotate(45 1659 1558)" fill="#0062cc"/>
    <rect id="Rect_80" x="1682.5" y="1556.5" width="5" height="5" transform="rotate(45 1684 1558)" fill="#0062cc"/>
    <rect id="Rect_81" x="1707.5" y="1556.5" width="5" height="5" transform="rotate(45 1709 1558)" fill="#0062cc"/>
    <rect id="Rect_82" x="1732.5" y="1556.5" width="5" height="5" transform="rotate(45 1734 1558)" fill="#0062cc"/>
    <rect id="Rect_83" x="1757.5" y="1556.5" width="5" height="5" transform="rotate(45 1759 1558)" fill="#0062cc"/>
    <rect id="Rect_84" x="1782.5" y="1556.5" width="5" height="5" transform="rotate(45 1784 1558)" fill="#0062cc"/>
    <rect id="Rect_85" x="1807.5" y="1556.5" width="5" height="5" transform="rotate(45 1809 1558)" fill="#0062cc"/>
    <rect id="Rect_86" x="1832.5" y="1556.5" width="5" height="5" transform="rotate(45 1834 1558)" fill="#0062cc"/>
    <rect id="Rect_87" x="1857.5" y="1556.5" width="5" height="5" transform="rotate(45 1859 1558)" fill="#0062cc"/>
    <rect id="Rect_88" x="1882.5" y="1556.5" width="5" height="5" transform="rotate(45 1884 1558)" fill="#0062cc"/>
    <rect id="Rect_89" x="1632.5" y="1581.5" width="5" height="5" transform="rotate(45 1634 1583)" fill="#0062cc"/>
    <rect id="Rect_90" x="1657.5" y="1581.5" width="5" height="5" transform="rotate(45 1659 1583)" fill="#0062cc"/>
    <rect id="Rect_91" x="1682.5" y="1581.5" width="5" height="5" transform="rotate(45 1684 1583)" fill="#0062cc"/>
    <rect id="Rect_92" x="1707.5" y="1581.5" width="5" height="5" transform="rotate(45 1709 1583)" fill="#0062cc"/>
    <rect id="Rect_93" x="1732.5" y="1581.5" width="5" height="5" transform="rotate(45 1734 1583)" fill="#0062cc"/>
    <rect id="Rect_94" x="1757.5" y="1581.5" width="5" height="5" transform="rotate(45 1759 1583)" fill="#0062cc"/>
    <rect id="Rect_95" x="1782.5" y="1581.5" width="5" height="5" transform="rotate(45 1784 1583)" fill="#0062cc"/>
    <rect id="Rect_96" x="1807.5" y="1581.5" width="5" height="5" transform="rotate(45 1809 1583)" fill="#0062cc"/>
    <rect id="Rect_97" x="1832.5" y="1581.5" width="5" height="5" transform="rotate(45 1834 1583)" fill="#0062cc"/>
    <rect id="Rect_98" x="1857.5" y="1581.5" width="5" height="5" transform="rotate(45 1859 1583)" fill="#0062cc"/>
    <rect id="Rect_99" x="1882.5" y="1581.5" width="5" height="5" transform="rotate(45 1884 1583)" fill="#0062cc"/>
    <rect id="Rect_100" x="1632.5" y="1606.5" width="5" height="5" transform="rotate(45 1634 1608)" fill="#0062cc"/>
    <rect id="Rect_101" x="1657.5" y="1606.5" width="5" height="5" transform="rotate(45 1659 1608)" fill="#0062cc"/>
    <rect id="Rect_102" x="1682.5" y="1606.5" width="5" height="5" transform="rotate(45 1684 1608)" fill="#0062cc"/>
    <rect id="Rect_103" x="1707.5" y="1606.5" width="5" height="5" transform="rotate(45 1709 1608)" fill="#0062cc"/>
    <rect id="Rect_104" x="1732.5" y="1606.5" width="5" height="5" transform="rotate(45 1734 1608)" fill="#0062cc"/>
    <rect id="Rect_105" x="1757.5" y="1606.5" width="5" height="5" transform="rotate(45 1759 1608)" fill="#0062cc"/>
    <rect id="Rect_106" x="1782.5" y="1606.5" width="5" height="5" transform="rotate(45 1784 1608)" fill="#0062cc"/>
    <rect id="Rect_107" x="1807.5" y="1606.5" width="5" height="5" transform="rotate(45 1809 1608)" fill="#0062cc"/>
    <rect id="Rect_108" x="1832.5" y="1606.5" width="5" height="5" transform="rotate(45 1834 1608)" fill="#0062cc"/>
    <rect id="Rect_109" x="1857.5" y="1606.5" width="5" height="5" transform="rotate(45 1859 1608)" fill="#0062cc"/>
    <rect id="Rect_110" x="1882.5" y="1606.5" width="5" height="5" transform="rotate(45 1884 1608)" fill="#0062cc"/>
    <rect id="Rect_111" x="1632.5" y="1631.5" width="5" height="5" transform="rotate(45 1634 1633)" fill="#0062cc"/>
    <rect id="Rect_112" x="1657.5" y="1631.5" width="5" height="5" transform="rotate(45 1659 1633)" fill="#0062cc"/>
    <rect id="Rect_113" x="1682.5" y="1631.5" width="5" height="5" transform="rotate(45 1684 1633)" fill="#0062cc"/>
    <rect id="Rect_114" x="1707.5" y="1631.5" width="5" height="5" transform="rotate(45 1709 1633)" fill="#0062cc"/>
    <rect id="Rect_115" x="1732.5" y="1631.5" width="5" height="5" transform="rotate(45 1734 1633)" fill="#0062cc"/>
    <rect id="Rect_116" x="1757.5" y="1631.5" width="5" height="5" transform="rotate(45 1759 1633)" fill="#0062cc"/>
    <rect id="Rect_117" x="1782.5" y="1631.5" width="5" height="5" transform="rotate(45 1784 1633)" fill="#0062cc"/>
    <rect id="Rect_118" x="1807.5" y="1631.5" width="5" height="5" transform="rotate(45 1809 1633)" fill="#0062cc"/>
    <rect id="Rect_119" x="1832.5" y="1631.5" width="5" height="5" transform="rotate(45 1834 1633)" fill="#0062cc"/>
    <rect id="Rect_120" x="1857.5" y="1631.5" width="5" height="5" transform="rotate(45 1859 1633)" fill="#0062cc"/>
    <rect id="Rect_121" x="1882.5" y="1631.5" width="5" height="5" transform="rotate(45 1884 1633)" fill="#0062cc"/>
    <rect id="Rect_122" x="1632.5" y="1656.5" width="5" height="5" transform="rotate(45 1634 1658)" fill="#0062cc"/>
    <rect id="Rect_123" x="1657.5" y="1656.5" width="5" height="5" transform="rotate(45 1659 1658)" fill="#0062cc"/>
    <rect id="Rect_124" x="1682.5" y="1656.5" width="5" height="5" transform="rotate(45 1684 1658)" fill="#0062cc"/>
    <rect id="Rect_125" x="1707.5" y="1656.5" width="5" height="5" transform="rotate(45 1709 1658)" fill="#0062cc"/>
    <rect id="Rect_126" x="1732.5" y="1656.5" width="5" height="5" transform="rotate(45 1734 1658)" fill="#0062cc"/>
    <rect id="Rect_127" x="1757.5" y="1656.5" width="5" height="5" transform="rotate(45 1759 1658)" fill="#0062cc"/>
    <rect id="Rect_128" x="1782.5" y="1656.5" width="5" height="5" transform="rotate(45 1784 1658)" fill="#0062cc"/>
    <rect id="Rect_129" x="1807.5" y="1656.5" width="5" height="5" transform="rotate(45 1809 1658)" fill="#0062cc"/>
    <rect id="Rect_130" x="1832.5" y="1656.5" width="5" height="5" transform="rotate(45 1834 1658)" fill="#0062cc"/>
    <rect id="Rect_131" x="1857.5" y="1656.5" width="5" height="5" transform="rotate(45 1859 1658)" fill="#0062cc"/>
    <rect id="Rect_132" x="1882.5" y="1656.5" width="5" height="5" transform="rotate(45 1884 1658)" fill="#0062cc"/>
    <rect id="Rect_133" x="1632.5" y="1681.5" width="5" height="5" transform="rotate(45 1634 1683)" fill="#0062cc"/>
    <rect id="Rect_134" x="1657.5" y="1681.5" width="5" height="5" transform="rotate(45 1659 1683)" fill="#0062cc"/>
    <rect id="Rect_135" x="1682.5" y="1681.5" width="5" height="5" transform="rotate(45 1684 1683)" fill="#0062cc"/>
    <rect id="Rect_136" x="1707.5" y="1681.5" width="5" height="5" transform="rotate(45 1709 1683)" fill="#0062cc"/>
    <rect id="Rect_137" x="1732.5" y="1681.5" width="5" height="5" transform="rotate(45 1734 1683)" fill="#0062cc"/>
    <rect id="Rect_138" x="1757.5" y="1681.5" width="5" height="5" transform="rotate(45 1759 1683)" fill="#0062cc"/>
    <rect id="Rect_139" x="1782.5" y="1681.5" width="5" height="5" transform="rotate(45 1784 1683)" fill="#0062cc"/>
    <rect id="Rect_140" x="1807.5" y="1681.5" width="5" height="5" transform="rotate(45 1809 1683)" fill="#0062cc"/>
    <rect id="Rect_141" x="1832.5" y="1681.5" width="5" height="5" transform="rotate(45 1834 1683)" fill="#0062cc"/>
    <rect id="Rect_142" x="1857.5" y="1681.5" width="5" height="5" transform="rotate(45 1859 1683)" fill="#0062cc"/>
    <rect id="Rect_143" x="1882.5" y="1681.5" width="5" height="5" transform="rotate(45 1884 1683)" fill="#0062cc"/>
    <rect id="Rect_144" x="1632.5" y="1706.5" width="5" height="5" transform="rotate(45 1634 1708)" fill="#0062cc"/>
    <rect id="Rect_145" x="1657.5" y="1706.5" width="5" height="5" transform="rotate(45 1659 1708)" fill="#0062cc"/>
    <rect id="Rect_146" x="1682.5" y="1706.5" width="5" height="5" transform="rotate(45 1684 1708)" fill="#0062cc"/>
    <rect id="Rect_147" x="1707.5" y="1706.5" width="5" height="5" transform="rotate(45 1709 1708)" fill="#0062cc"/>
    <rect id="Rect_148" x="1732.5" y="1706.5" width="5" height="5" transform="rotate(45 1734 1708)" fill="#0062cc"/>
    <rect id="Rect_149" x="1757.5" y="1706.5" width="5" height="5" transform="rotate(45 1759 1708)" fill="#0062cc"/>
    <rect id="Rect_150" x="1782.5" y="1706.5" width="5" height="5" transform="rotate(45 1784 1708)" fill="#0062cc"/>
    <rect id="Rect_151" x="1807.5" y="1706.5" width="5" height="5" transform="rotate(45 1809 1708)" fill="#0062cc"/>
    <rect id="Rect_152" x="1832.5" y="1706.5" width="5" height="5" transform="rotate(45 1834 1708)" fill="#0062cc"/>
    <rect id="Rect_153" x="1857.5" y="1706.5" width="5" height="5" transform="rotate(45 1859 1708)" fill="#0062cc"/>
    <rect id="Rect_154" x="1882.5" y="1706.5" width="5" height="5" transform="rotate(45 1884 1708)" fill="#0062cc"/>
    <rect id="Rect_155" x="1632.5" y="1731.5" width="5" height="5" transform="rotate(45 1634 1733)" fill="#0062cc"/>
    <rect id="Rect_156" x="1657.5" y="1731.5" width="5" height="5" transform="rotate(45 1659 1733)" fill="#0062cc"/>
    <rect id="Rect_157" x="1682.5" y="1731.5" width="5" height="5" transform="rotate(45 1684 1733)" fill="#0062cc"/>
    <rect id="Rect_158" x="1707.5" y="1731.5" width="5" height="5" transform="rotate(45 1709 1733)" fill="#0062cc"/>
    <rect id="Rect_159" x="1732.5" y="1731.5" width="5" height="5" transform="rotate(45 1734 1733)" fill="#0062cc"/>
    <rect id="Rect_160" x="1757.5" y="1731.5" width="5" height="5" transform="rotate(45 1759 1733)" fill="#0062cc"/>
    <rect id="Rect_161" x="1782.5" y="1731.5" width="5" height="5" transform="rotate(45 1784 1733)" fill="#0062cc"/>
    <rect id="Rect_162" x="1807.5" y="1731.5" width="5" height="5" transform="rotate(45 1809 1733)" fill="#0062cc"/>
    <rect id="Rect_163" x="1832.5" y="1731.5" width="5" height="5" transform="rotate(45 1834 1733)" fill="#0062cc"/>
    <rect id="Rect_164" x="1857.5" y="1731.5" width="5" height="5" transform="rotate(45 1859 1733)" fill="#0062cc"/>
    <rect id="Rect_165" x="1882.5" y="1731.5" width="5" height="5" transform="rotate(45 1884 1733)" fill="#0062cc"/>
    <rect id="Rect_166" x="1632.5" y="1756.5" width="5" height="5" transform="rotate(45 1634 1758)" fill="#0062cc"/>
    <rect id="Rect_167" x="1657.5" y="1756.5" width="5" height="5" transform="rotate(45 1659 1758)" fill="#0062cc"/>
    <rect id="Rect_168" x="1682.5" y="1756.5" width="5" height="5" transform="rotate(45 1684 1758)" fill="#0062cc"/>
    <rect id="Rect_169" x="1707.5" y="1756.5" width="5" height="5" transform="rotate(45 1709 1758)" fill="#0062cc"/>
    <rect id="Rect_170" x="1732.5" y="1756.5" width="5" height="5" transform="rotate(45 1734 1758)" fill="#0062cc"/>
    <rect id="Rect_171" x="1757.5" y="1756.5" width="5" height="5" transform="rotate(45 1759 1758)" fill="#0062cc"/>
    <rect id="Rect_172" x="1782.5" y="1756.5" width="5" height="5" transform="rotate(45 1784 1758)" fill="#0062cc"/>
    <rect id="Rect_173" x="1807.5" y="1756.5" width="5" height="5" transform="rotate(45 1809 1758)" fill="#0062cc"/>
    <rect id="Rect_174" x="1832.5" y="1756.5" width="5" height="5" transform="rotate(45 1834 1758)" fill="#0062cc"/>
    <rect id="Rect_175" x="1857.5" y="1756.5" width="5" height="5" transform="rotate(45 1859 1758)" fill="#0062cc"/>
    <rect id="Rect_176" x="1882.5" y="1756.5" width="5" height="5" transform="rotate(45 1884 1758)" fill="#0062cc"/>
    <rect id="Rect_177" x="1632.5" y="1781.5" width="5" height="5" transform="rotate(45 1634 1783)" fill="#0062cc"/>
    <rect id="Rect_178" x="1657.5" y="1781.5" width="5" height="5" transform="rotate(45 1659 1783)" fill="#0062cc"/>
    <rect id="Rect_179" x="1682.5" y="1781.5" width="5" height="5" transform="rotate(45 1684 1783)" fill="#0062cc"/>
    <rect id="Rect_180" x="1707.5" y="1781.5" width="5" height="5" transform="rotate(45 1709 1783)" fill="#0062cc"/>
    <rect id="Rect_181" x="1732.5" y="1781.5" width="5" height="5" transform="rotate(45 1734 1783)" fill="#0062cc"/>
    <rect id="Rect_182" x="1757.5" y="1781.5" width="5" height="5" transform="rotate(45 1759 1783)" fill="#0062cc"/>
    <rect id="Rect_183" x="1782.5" y="1781.5" width="5" height="5" transform="rotate(45 1784 1783)" fill="#0062cc"/>
    <rect id="Rect_184" x="1807.5" y="1781.5" width="5" height="5" transform="rotate(45 1809 1783)" fill="#0062cc"/>
    <rect id="Rect_185" x="1832.5" y="1781.5" width="5" height="5" transform="rotate(45 1834 1783)" fill="#0062cc"/>
    <rect id="Rect_186" x="1857.5" y="1781.5" width="5" height="5" transform="rotate(45 1859 1783)" fill="#0062cc"/>
    <rect id="Rect_187" x="1882.5" y="1781.5" width="5" height="5" transform="rotate(45 1884 1783)" fill="#0062cc"/>
    <rect id="Rect_188" x="1632.5" y="1806.5" width="5" height="5" transform="rotate(45 1634 1808)" fill="#0062cc"/>
    <rect id="Rect_189" x="1657.5" y="1806.5" width="5" height="5" transform="rotate(45 1659 1808)" fill="#0062cc"/>
    <rect id="Rect_190" x="1682.5" y="1806.5" width="5" height="5" transform="rotate(45 1684 1808)" fill="#0062cc"/>
    <rect id="Rect_191" x="1707.5" y="1806.5" width="5" height="5" transform="rotate(45 1709 1808)" fill="#0062cc"/>
    <rect id="Rect_192" x="1732.5" y="1806.5" width="5" height="5" transform="rotate(45 1734 1808)" fill="#0062cc"/>
    <rect id="Rect_193" x="1757.5" y="1806.5" width="5" height="5" transform="rotate(45 1759 1808)" fill="#0062cc"/>
    <rect id="Rect_194" x="1782.5" y="1806.5" width="5" height="5" transform="rotate(45 1784 1808)" fill="#0062cc"/>
    <rect id="Rect_195" x="1807.5" y="1806.5" width="5" height="5" transform="rotate(45 1809 1808)" fill="#0062cc"/>
    <rect id="Rect_196" x="1832.5" y="1806.5" width="5" height="5" transform="rotate(45 1834 1808)" fill="#0062cc"/>
    <rect id="Rect_197" x="1857.5" y="1806.5" width="5" height="5" transform="rotate(45 1859 1808)" fill="#0062cc"/>
    <rect id="Rect_198" x="1882.5" y="1806.5" width="5" height="5" transform="rotate(45 1884 1808)" fill="#0062cc"/>
    <rect id="Rect_199" x="1632.5" y="1831.5" width="5" height="5" transform="rotate(45 1634 1833)" fill="#0062cc"/>
    <rect id="Rect_200" x="1657.5" y="1831.5" width="5" height="5" transform="rotate(45 1659 1833)" fill="#0062cc"/>
    <rect id="Rect_201" x="1682.5" y="1831.5" width="5" height="5" transform="rotate(45 1684 1833)" fill="#0062cc"/>
    <rect id="Rect_202" x="1707.5" y="1831.5" width="5" height="5" transform="rotate(45 1709 1833)" fill="#0062cc"/>
    <rect id="Rect_203" x="1732.5" y="1831.5" width="5" height="5" transform="rotate(45 1734 1833)" fill="#0062cc"/>
    <rect id="Rect_204" x="1757.5" y="1831.5" width="5" height="5" transform="rotate(45 1759 1833)" fill="#0062cc"/>
    <rect id="Rect_205" x="1782.5" y="1831.5" width="5" height="5" transform="rotate(45 1784 1833)" fill="#0062cc"/>
    <rect id="Rect_206" x="1807.5" y="1831.5" width="5" height="5" transform="rotate(45 1809 1833)" fill="#0062cc"/>
    <rect id="Rect_207" x="1832.5" y="1831.5" width="5" height="5" transform="rotate(45 1834 1833)" fill="#0062cc"/>
    <rect id="Rect_208" x="1857.5" y="1831.5" width="5" height="5" transform="rotate(45 1859 1833)" fill="#0062cc"/>
    <rect id="Rect_209" x="1882.5" y="1831.5" width="5" height="5" transform="rotate(45 1884 1833)" fill="#0062cc"/>
    <rect id="Rect_210" x="1632.5" y="1856.5" width="5" height="5" transform="rotate(45 1634 1858)" fill="#0062cc"/>
    <rect id="Rect_211" x="1657.5" y="1856.5" width="5" height="5" transform="rotate(45 1659 1858)" fill="#0062cc"/>
    <rect id="Rect_212" x="1682.5" y="1856.5" width="5" height="5" transform="rotate(45 1684 1858)" fill="#0062cc"/>
    <rect id="Rect_213" x="1707.5" y="1856.5" width="5" height="5" transform="rotate(45 1709 1858)" fill="#0062cc"/>
    <rect id="Rect_214" x="1732.5" y="1856.5" width="5" height="5" transform="rotate(45 1734 1858)" fill="#0062cc"/>
    <rect id="Rect_215" x="1757.5" y="1856.5" width="5" height="5" transform="rotate(45 1759 1858)" fill="#0062cc"/>
    <rect id="Rect_216" x="1782.5" y="1856.5" width="5" height="5" transform="rotate(45 1784 1858)" fill="#0062cc"/>
    <rect id="Rect_217" x="1807.5" y="1856.5" width="5" height="5" transform="rotate(45 1809 1858)" fill="#0062cc"/>
    <rect id="Rect_218" x="1832.5" y="1856.5" width="5" height="5" transform="rotate(45 1834 1858)" fill="#0062cc"/>
    <rect id="Rect_219" x="1857.5" y="1856.5" width="5" height="5" transform="rotate(45 1859 1858)" fill="#0062cc"/>
    <rect id="Rect_220" x="1882.5" y="1856.5" width="5" height="5" transform="rotate(45 1884 1858)" fill="#0062cc"/>
    <rect id="Rect_221" x="1632.5" y="1881.5" width="5" height="5" transform="rotate(45 1634 1883)" fill="#0062cc"/>
    <rect id="Rect_222" x="1657.5" y="1881.5" width="5" height="5" transform="rotate(45 1659 1883)" fill="#0062cc"/>
    <rect id="Rect_223" x="1682.5" y="1881.5" width="5" height="5" transform="rotate(45 1684 1883)" fill="#0062cc"/>
    <rect id="Rect_224" x="1707.5" y="1881.5" width="5" height="5" transform="rotate(45 1709 1883)" fill="#0062cc"/>
    <rect id="Rect_225" x="1732.5" y="1881.5" width="5" height="5" transform="rotate(45 1734 1883)" fill="#0062cc"/>
    <rect id="Rect_226" x="1757.5" y="1881.5" width="5" height="5" transform="rotate(45 1759 1883)" fill="#0062cc"/>
    <rect id="Rect_227" x="1782.5" y="1881.5" width="5" height="5" transform="rotate(45 1784 1883)" fill="#0062cc"/>
    <rect id="Rect_228" x="1807.5" y="1881.5" width="5" height="5" transform="rotate(45 1809 1883)" fill="#0062cc"/>
    <rect id="Rect_229" x="1832.5" y="1881.5" width="5" height="5" transform="rotate(45 1834 1883)" fill="#0062cc"/>
    <rect id="Rect_230" x="1857.5" y="1881.5" width="5" height="5" transform="rotate(45 1859 1883)" fill="#0062cc"/>
    <rect id="Rect_231" x="1882.5" y="1881.5" width="5" height="5" transform="rotate(45 1884 1883)" fill="#0062cc"/>
    <rect id="Rect_232" x="1632.5" y="1906.5" width="5" height="5" transform="rotate(45 1634 1908)" fill="#0062cc"/>
    <rect id="Rect_233" x="1657.5" y="1906.5" width="5" height="5" transform="rotate(45 1659 1908)" fill="#0062cc"/>
    <rect id="Rect_234" x="1682.5" y="1906.5" width="5" height="5" transform="rotate(45 1684 1908)" fill="#0062cc"/>
    <rect id="Rect_235" x="1707.5" y="1906.5" width="5" height="5" transform="rotate(45 1709 1908)" fill="#0062cc"/>
    <rect id="Rect_236" x="1732.5" y="1906.5" width="5" height="5" transform="rotate(45 1734 1908)" fill="#0062cc"/>
    <rect id="Rect_237" x="1757.5" y="1906.5" width="5" height="5" transform="rotate(45 1759 1908)" fill="#0062cc"/>
    <rect id="Rect_238" x="1782.5" y="1906.5" width="5" height="5" transform="rotate(45 1784 1908)" fill="#0062cc"/>
    <rect id="Rect_239" x="1807.5" y="1906.5" width="5" height="5" transform="rotate(45 1809 1908)" fill="#0062cc"/>
    <rect id="Rect_240" x="1832.5" y="1906.5" width="5" height="5" transform="rotate(45 1834 1908)" fill="#0062cc"/>
    <rect id="Rect_241" x="1857.5" y="1906.5" width="5" height="5" transform="rotate(45 1859 1908)" fill="#0062cc"/>
    <rect id="Rect_242" x="1882.5" y="1906.5" width="5" height="5" transform="rotate(45 1884 1908)" fill="#0062cc"/>
    <rect id="Rect_243" x="1632.5" y="1931.5" width="5" height="5" transform="rotate(45 1634 1933)" fill="#0062cc"/>
    <rect id="Rect_244" x="1657.5" y="1931.5" width="5" height="5" transform="rotate(45 1659 1933)" fill="#0062cc"/>
    <rect id="Rect_245" x="1682.5" y="1931.5" width="5" height="5" transform="rotate(45 1684 1933)" fill="#0062cc"/>
    <rect id="Rect_246" x="1707.5" y="1931.5" width="5" height="5" transform="rotate(45 1709 1933)" fill="#0062cc"/>
    <rect id="Rect_247" x="1732.5" y="1931.5" width="5" height="5" transform="rotate(45 1734 1933)" fill="#0062cc"/>
    <rect id="Rect_248" x="1757.5" y="1931.5" width="5" height="5" transform="rotate(45 1759 1933)" fill="#0062cc"/>
    <rect id="Rect_249" x="1782.5" y="1931.5" width="5" height="5" transform="rotate(45 1784 1933)" fill="#0062cc"/>
    <rect id="Rect_250" x="1807.5" y="1931.5" width="5" height="5" transform="rotate(45 1809 1933)" fill="#0062cc"/>
    <rect id="Rect_251" x="1832.5" y="1931.5" width="5" height="5" transform="rotate(45 1834 1933)" fill="#0062cc"/>
    <rect id="Rect_252" x="1857.5" y="1931.5" width="5" height="5" transform="rotate(45 1859 1933)" fill="#0062cc"/>
    <rect id="Rect_253" x="1882.5" y="1931.5" width="5" height="5" transform="rotate(45 1884 1933)" fill="#0062cc"/>
    <rect id="Rect_254" x="1632.5" y="1956.5" width="5" height="5" transform="rotate(45 1634 1958)" fill="#0062cc"/>
    <rect id="Rect_255" x="1657.5" y="1956.5" width="5" height="5" transform="rotate(45 1659 1958)" fill="#0062cc"/>
    <rect id="Rect_256" x="1682.5" y="1956.5" width="5" height="5" transform="rotate(45 1684 1958)" fill="#0062cc"/>
    <rect id="Rect_257" x="1707.5" y="1956.5" width="5" height="5" transform="rotate(45 1709 1958)" fill="#0062cc"/>
    <rect id="Rect_258" x="1732.5" y="1956.5" width="5" height="5" transform="rotate(45 1734 1958)" fill="#0062cc"/>
    <rect id="Rect_259" x="1757.5" y="1956.5" width="5" height="5" transform="rotate(45 1759 1958)" fill="#0062cc"/>
    <rect id="Rect_260" x="1782.5" y="1956.5" width="5" height="5" transform="rotate(45 1784 1958)" fill="#0062cc"/>
    <rect id="Rect_261" x="1807.5" y="1956.5" width="5" height="5" transform="rotate(45 1809 1958)" fill="#0062cc"/>
    <rect id="Rect_262" x="1832.5" y="1956.5" width="5" height="5" transform="rotate(45 1834 1958)" fill="#0062cc"/>
    <rect id="Rect_263" x="1857.5" y="1956.5" width="5" height="5" transform="rotate(45 1859 1958)" fill="#0062cc"/>
    <rect id="Rect_264" x="1882.5" y="1956.5" width="5" height="5" transform="rotate(45 1884 1958)" fill="#0062cc"/>
    <rect id="Rect_265" x="1632.5" y="1981.5" width="5" height="5" transform="rotate(45 1634 1983)" fill="#0062cc"/>
    <rect id="Rect_266" x="1657.5" y="1981.5" width="5" height="5" transform="rotate(45 1659 1983)" fill="#0062cc"/>
    <rect id="Rect_267" x="1682.5" y="1981.5" width="5" height="5" transform="rotate(45 1684 1983)" fill="#0062cc"/>
    <rect id="Rect_268" x="1707.5" y="1981.5" width="5" height="5" transform="rotate(45 1709 1983)" fill="#0062cc"/>
    <rect id="Rect_269" x="1732.5" y="1981.5" width="5" height="5" transform="rotate(45 1734 1983)" fill="#0062cc"/>
    <rect id="Rect_270" x="1757.5" y="1981.5" width="5" height="5" transform="rotate(45 1759 1983)" fill="#0062cc"/>
    <rect id="Rect_271" x="1782.5" y="1981.5" width="5" height="5" transform="rotate(45 1784 1983)" fill="#0062cc"/>
    <rect id="Rect_272" x="1807.5" y="1981.5" width="5" height="5" transform="rotate(45 1809 1983)" fill="#0062cc"/>
    <rect id="Rect_273" x="1832.5" y="1981.5" width="5" height="5" transform="rotate(45 1834 1983)" fill="#0062cc"/>
    <rect id="Rect_274" x="1857.5" y="1981.5" width="5" height="5" transform="rotate(45 1859 1983)" fill="#0062cc"/>
    <rect id="Rect_275" x="1882.5" y="1981.5" width="5" height="5" transform="rotate(45 1884 1983)" fill="#0062cc"/>
    <rect id="Rect_276" x="1632.5" y="2006.5" width="5" height="5" transform="rotate(45 1634 2008)" fill="#0062cc"/>
    <rect id="Rect_277" x="1657.5" y="2006.5" width="5" height="5" transform="rotate(45 1659 2008)" fill="#0062cc"/>
    <rect id="Rect_278" x="1682.5" y="2006.5" width="5" height="5" transform="rotate(45 1684 2008)" fill="#0062cc"/>
    <rect id="Rect_279" x="1707.5" y="2006.5" width="5" height="5" transform="rotate(45 1709 2008)" fill="#0062cc"/>
    <rect id="Rect_280" x="1732.5" y="2006.5" width="5" height="5" transform="rotate(45 1734 2008)" fill="#0062cc"/>
    <rect id="Rect_281" x="1757.5" y="2006.5" width="5" height="5" transform="rotate(45 1759 2008)" fill="#0062cc"/>
    <rect id="Rect_282" x="1782.5" y="2006.5" width="5" height="5" transform="rotate(45 1784 2008)" fill="#0062cc"/>
    <rect id="Rect_283" x="1807.5" y="2006.5" width="5" height="5" transform="rotate(45 1809 2008)" fill="#0062cc"/>
    <rect id="Rect_284" x="1832.5" y="2006.5" width="5" height="5" transform="rotate(45 1834 2008)" fill="#0062cc"/>
    <rect id="Rect_285" x="1857.5" y="2006.5" width="5" height="5" transform="rotate(45 1859 2008)" fill="#0062cc"/>
    <rect id="Rect_286" x="1882.5" y="2006.5" width="5" height="5" transform="rotate(45 1884 2008)" fill="#0062cc"/>
    <rect id="Rect_287" x="1632.5" y="2031.5" width="5" height="5" transform="rotate(45 1634 2033)" fill="#0062cc"/>
    <rect id="Rect_288" x="1657.5" y="2031.5" width="5" height="5" transform="rotate(45 1659 2033)" fill="#0062cc"/>
    <rect id="Rect_289" x="1682.5" y="2031.5" width="5" height="5" transform="rotate(45 1684 2033)" fill="#0062cc"/>
    <rect id="Rect_290" x="1707.5" y="2031.5" width="5" height="5" transform="rotate(45 1709 2033)" fill="#0062cc"/>
    <rect id="Rect_291" x="1732.5" y="2031.5" width="5" height="5" transform="rotate(45 1734 2033)" fill="#0062cc"/>
    <rect id="Rect_292" x="1757.5" y="2031.5" width="5" height="5" transform="rotate(45 1759 2033)" fill="#0062cc"/>
    <rect id="Rect_293" x="1782.5" y="2031.5" width="5" height="5" transform="rotate(45 1784 2033)" fill="#0062cc"/>
    <rect id="Rect_294" x="1807.5" y="2031.5" width="5" height="5" transform="rotate(45 1809 2033)" fill="#0062cc"/>
    <rect id="Rect_295" x="1832.5" y="2031.5" width="5" height="5" transform="rotate(45 1834 2033)" fill="#0062cc"/>
    <rect id="Rect_296" x="1857.5" y="2031.5" width="5" height="5" transform="rotate(45 1859 2033)" fill="#0062cc"/>
    <rect id="Rect_297" x="1882.5" y="2031.5" width="5" height="5" transform="rotate(45 1884 2033)" fill="#0062cc"/>
    <rect id="Rect_298" x="1632.5" y="2056.5" width="5" height="5" transform="rotate(45 1634 2058)" fill="#0062cc"/>
    <rect id="Rect_299" x="1657.5" y="2056.5" width="5" height="5" transform="rotate(45 1659 2058)" fill="#0062cc"/>
    <rect id="Rect_300" x="1682.5" y="2056.5" width="5" height="5" transform="rotate(45 1684 2058)" fill="#0062cc"/>
    <rect id="Rect_301" x="1707.5" y="2056.5" width="5" height="5" transform="rotate(45 1709 2058)" fill="#0062cc"/>
    <rect id="Rect_302" x="1732.5" y="2056.5" width="5" height="5" transform="rotate(45 1734 2058)" fill="#0062cc"/>
    <rect id="Rect_303" x="1757.5" y="2056.5" width="5" height="5" transform="rotate(45 1759 2058)" fill="#0062cc"/>
    <rect id="Rect_304" x="1782.5" y="2056.5" width="5" height="5" transform="rotate(45 1784 2058)" fill="#0062cc"/>
    <rect id="Rect_305" x="1807.5" y="2056.5" width="5" height="5" transform="rotate(45 1809 2058)" fill="#0062cc"/>
    <rect id="Rect_306" x="1832.5" y="2056.5" width="5" height="5" transform="rotate(45 1834 2058)" fill="#0062cc"/>
    <rect id="Rect_307" x="1857.5" y="2056.5" width="5" height="5" transform="rotate(45 1859 2058)" fill="#0062cc"/>
    <rect id="Rect_308" x="1882.5" y="2056.5" width="5" height="5" transform="rotate(45 1884 2058)" fill="#0062cc"/>
    <rect id="Rect_309" x="1632.5" y="2081.5" width="5" height="5" transform="rotate(45 1634 2083)" fill="#0062cc"/>
    <rect id="Rect_310" x="1657.5" y="2081.5" width="5" height="5" transform="rotate(45 1659 2083)" fill="#0062cc"/>
    <rect id="Rect_311" x="1682.5" y="2081.5" width="5" height="5" transform="rotate(45 1684 2083)" fill="#0062cc"/>
    <rect id="Rect_312" x="1707.5" y="2081.5" width="5" height="5" transform="rotate(45 1709 2083)" fill="#0062cc"/>
    <rect id="Rect_313" x="1732.5" y="2081.5" width="5" height="5" transform="rotate(45 1734 2083)" fill="#0062cc"/>
    <rect id="Rect_314" x="1757.5" y="2081.5" width="5" height="5" transform="rotate(45 1759 2083)" fill="#0062cc"/>
    <rect id="Rect_315" x="1782.5" y="2081.5" width="5" height="5" transform="rotate(45 1784 2083)" fill="#0062cc"/>
    <rect id="Rect_316" x="1807.5" y="2081.5" width="5" height="5" transform="rotate(45 1809 2083)" fill="#0062cc"/>
    <rect id="Rect_317" x="1832.5" y="2081.5" width="5" height="5" transform="rotate(45 1834 2083)" fill="#0062cc"/>
    <rect id="Rect_318" x="1857.5" y="2081.5" width="5" height="5" transform="rotate(45 1859 2083)" fill="#0062cc"/>
    <rect id="Rect_319" x="1882.5" y="2081.5" width="5" height="5" transform="rotate(45 1884 2083)" fill="#0062cc"/>
    <rect id="Rect_320" x="1632.5" y="2106.5" width="5" height="5" transform="rotate(45 1634 2108)" fill="#0062cc"/>
    <rect id="Rect_321" x="1657.5" y="2106.5" width="5" height="5" transform="rotate(45 1659 2108)" fill="#0062cc"/>
    <rect id="Rect_322" x="1682.5" y="2106.5" width="5" height="5" transform="rotate(45 1684 2108)" fill="#0062cc"/>
    <rect id="Rect_323" x="1707.5" y="2106.5" width="5" height="5" transform="rotate(45 1709 2108)" fill="#0062cc"/>
    <rect id="Rect_324" x="1732.5" y="2106.5" width="5" height="5" transform="rotate(45 1734 2108)" fill="#0062cc"/>
    <rect id="Rect_325" x="1757.5" y="2106.5" width="5" height="5" transform="rotate(45 1759 2108)" fill="#0062cc"/>
    <rect id="Rect_326" x="1782.5" y="2106.5" width="5" height="5" transform="rotate(45 1784 2108)" fill="#0062cc"/>
    <rect id="Rect_327" x="1807.5" y="2106.5" width="5" height="5" transform="rotate(45 1809 2108)" fill="#0062cc"/>
    <rect id="Rect_328" x="1832.5" y="2106.5" width="5" height="5" transform="rotate(45 1834 2108)" fill="#0062cc"/>
    <rect id="Rect_329" x="1857.5" y="2106.5" width="5" height="5" transform="rotate(45 1859 2108)" fill="#0062cc"/>
    <rect id="Rect_330" x="1882.5" y="2106.5" width="5" height="5" transform="rotate(45 1884 2108)" fill="#0062cc"/>
    <rect id="Rect_331" x="1632.5" y="2131.5" width="5" height="5" transform="rotate(45 1634 2133)" fill="#0062cc"/>
    <rect id="Rect_332" x="1657.5" y="2131.5" width="5" height="5" transform="rotate(45 1659 2133)" fill="#0062cc"/>
    <rect id="Rect_333" x="1682.5" y="2131.5" width="5" height="5" transform="rotate(45 1684 2133)" fill="#0062cc"/>
    <rect id="Rect_334" x="1707.5" y="2131.5" width="5" height="5" transform="rotate(45 1709 2133)" fill="#0062cc"/>
    <rect id="Rect_335" x="1732.5" y="2131.5" width="5" height="5" transform="rotate(45 1734 2133)" fill="#0062cc"/>
    <rect id="Rect_336" x="1757.5" y="2131.5" width="5" height="5" transform="rotate(45 1759 2133)" fill="#0062cc"/>
    <rect id="Rect_337" x="1782.5" y="2131.5" width="5" height="5" transform="rotate(45 1784 2133)" fill="#0062cc"/>
    <rect id="Rect_338" x="1807.5" y="2131.5" width="5" height="5" transform="rotate(45 1809 2133)" fill="#0062cc"/>
    <rect id="Rect_339" x="1832.5" y="2131.5" width="5" height="5" transform="rotate(45 1834 2133)" fill="#0062cc"/>
    <rect id="Rect_340" x="1857.5" y="2131.5" width="5" height="5" transform="rotate(45 1859 2133)" fill="#0062cc"/>
    <rect id="Rect_341" x="1882.5" y="2131.5" width="5" height="5" transform="rotate(45 1884 2133)" fill="#0062cc"/>
    <rect id="Rect_342" x="1632.5" y="2156.5" width="5" height="5" transform="rotate(45 1634 2158)" fill="#0062cc"/>
    <rect id="Rect_343" x="1657.5" y="2156.5" width="5" height="5" transform="rotate(45 1659 2158)" fill="#0062cc"/>
    <rect id="Rect_344" x="1682.5" y="2156.5" width="5" height="5" transform="rotate(45 1684 2158)" fill="#0062cc"/>
    <rect id="Rect_345" x="1707.5" y="2156.5" width="5" height="5" transform="rotate(45 1709 2158)" fill="#0062cc"/>
    <rect id="Rect_346" x="1732.5" y="2156.5" width="5" height="5" transform="rotate(45 1734 2158)" fill="#0062cc"/>
    <rect id="Rect_347" x="1757.5" y="2156.5" width="5" height="5" transform="rotate(45 1759 2158)" fill="#0062cc"/>
    <rect id="Rect_348" x="1782.5" y="2156.5" width="5" height="5" transform="rotate(45 1784 2158)" fill="#0062cc"/>
    <rect id="Rect_349" x="1807.5" y="2156.5" width="5" height="5" transform="rotate(45 1809 2158)" fill="#0062cc"/>
    <rect id="Rect_350" x="1832.5" y="2156.5" width="5" height="5" transform="rotate(45 1834 2158)" fill="#0062cc"/>
    <rect id="Rect_351" x="1857.5" y="2156.5" width="5" height="5" transform="rotate(45 1859 2158)" fill="#0062cc"/>
    <rect id="Rect_352" x="1882.5" y="2156.5" width="5" height="5" transform="rotate(45 1884 2158)" fill="#0062cc"/>
    <rect id="Rect_353" x="1632.5" y="2181.5" width="5" height="5" transform="rotate(45 1634 2183)" fill="#0062cc"/>
    <rect id="Rect_354" x="1657.5" y="2181.5" width="5" height="5" transform="rotate(45 1659 2183)" fill="#0062cc"/>
    <rect id="Rect_355" x="1682.5" y="2181.5" width="5" height="5" transform="rotate(45 1684 2183)" fill="#0062cc"/>
    <rect id="Rect_356" x="1707.5" y="2181.5" width="5" height="5" transform="rotate(45 1709 2183)" fill="#0062cc"/>
    <rect id="Rect_357" x="1732.5" y="2181.5" width="5" height="5" transform="rotate(45 1734 2183)" fill="#0062cc"/>
    <rect id="Rect_358" x="1757.5" y="2181.5" width="5" height="5" transform="rotate(45 1759 2183)" fill="#0062cc"/>
    <rect id="Rect_359" x="1782.5" y="2181.5" width="5" height="5" transform="rotate(45 1784 2183)" fill="#0062cc"/>
    <rect id="Rect_360" x="1807.5" y="2181.5" width="5" height="5" transform="rotate(45 1809 2183)" fill="#0062cc"/>
    <rect id="Rect_361" x="1832.5" y="2181.5" width="5" height="5" transform="rotate(45 1834 2183)" fill="#0062cc"/>
    <rect id="Rect_362" x="1857.5" y="2181.5" width="5" height="5" transform="rotate(45 1859 2183)" fill="#0062cc"/>
    <rect id="Rect_363" x="1882.5" y="2181.5" width="5" height="5" transform="rotate(45 1884 2183)" fill="#0062cc"/>
    <rect id="Rect_364" x="1632.5" y="2206.5" width="5" height="5" transform="rotate(45 1634 2208)" fill="#0062cc"/>
    <rect id="Rect_365" x="1657.5" y="2206.5" width="5" height="5" transform="rotate(45 1659 2208)" fill="#0062cc"/>
    <rect id="Rect_366" x="1682.5" y="2206.5" width="5" height="5" transform="rotate(45 1684 2208)" fill="#0062cc"/>
    <rect id="Rect_367" x="1707.5" y="2206.5" width="5" height="5" transform="rotate(45 1709 2208)" fill="#0062cc"/>
    <rect id="Rect_368" x="1732.5" y="2206.5" width="5" height="5" transform="rotate(45 1734 2208)" fill="#0062cc"/>
    <rect id="Rect_369" x="1757.5" y="2206.5" width="5" height="5" transform="rotate(45 1759 2208)" fill="#0062cc"/>
    <rect id="Rect_370" x="1782.5" y="2206.5" width="5" height="5" transform="rotate(45 1784 2208)" fill="#0062cc"/>
    <rect id="Rect_371" x="1807.5" y="2206.5" width="5" height="5" transform="rotate(45 1809 2208)" fill="#0062cc"/>
    <rect id="Rect_372" x="1832.5" y="2206.5" width="5" height="5" transform="rotate(45 1834 2208)" fill="#0062cc"/>
    <rect id="Rect_373" x="1857.5" y="2206.5" width="5" height="5" transform="rotate(45 1859 2208)" fill="#0062cc"/>
    <rect id="Rect_374" x="1882.5" y="2206.5" width="5" height="5" transform="rotate(45 1884 2208)" fill="#0062cc"/>
    <rect id="Rect_375" x="1632.5" y="2231.5" width="5" height="5" transform="rotate(45 1634 2233)" fill="#0062cc"/>
    <rect id="Rect_376" x="1657.5" y="2231.5" width="5" height="5" transform="rotate(45 1659 2233)" fill="#0062cc"/>
    <rect id="Rect_377" x="1682.5" y="2231.5" width="5" height="5" transform="rotate(45 1684 2233)" fill="#0062cc"/>
    <rect id="Rect_378" x="1707.5" y="2231.5" width="5" height="5" transform="rotate(45 1709 2233)" fill="#0062cc"/>
    <rect id="Rect_379" x="1732.5" y="2231.5" width="5" height="5" transform="rotate(45 1734 2233)" fill="#0062cc"/>
    <rect id="Rect_380" x="1757.5" y="2231.5" width="5" height="5" transform="rotate(45 1759 2233)" fill="#0062cc"/>
    <rect id="Rect_381" x="1782.5" y="2231.5" width="5" height="5" transform="rotate(45 1784 2233)" fill="#0062cc"/>
    <rect id="Rect_382" x="1807.5" y="2231.5" width="5" height="5" transform="rotate(45 1809 2233)" fill="#0062cc"/>
    <rect id="Rect_383" x="1832.5" y="2231.5" width="5" height="5" transform="rotate(45 1834 2233)" fill="#0062cc"/>
    <rect id="Rect_384" x="1857.5" y="2231.5" width="5" height="5" transform="rotate(45 1859 2233)" fill="#0062cc"/>
    <rect id="Rect_385" x="1882.5" y="2231.5" width="5" height="5" transform="rotate(45 1884 2233)" fill="#0062cc"/>
    <rect id="Rect_386" x="1632.5" y="2256.5" width="5" height="5" transform="rotate(45 1634 2258)" fill="#0062cc"/>
    <rect id="Rect_387" x="1657.5" y="2256.5" width="5" height="5" transform="rotate(45 1659 2258)" fill="#0062cc"/>
    <rect id="Rect_388" x="1682.5" y="2256.5" width="5" height="5" transform="rotate(45 1684 2258)" fill="#0062cc"/>
    <rect id="Rect_389" x="1707.5" y="2256.5" width="5" height="5" transform="rotate(45 1709 2258)" fill="#0062cc"/>
    <rect id="Rect_390" x="1732.5" y="2256.5" width="5" height="5" transform="rotate(45 1734 2258)" fill="#0062cc"/>
    <rect id="Rect_391" x="1757.5" y="2256.5" width="5" height="5" transform="rotate(45 1759 2258)" fill="#0062cc"/>
    <rect id="Rect_392" x="1782.5" y="2256.5" width="5" height="5" transform="rotate(45 1784 2258)" fill="#0062cc"/>
    <rect id="Rect_393" x="1807.5" y="2256.5" width="5" height="5" transform="rotate(45 1809 2258)" fill="#0062cc"/>
    <rect id="Rect_394" x="1832.5" y="2256.5" width="5" height="5" transform="rotate(45 1834 2258)" fill="#0062cc"/>
    <rect id="Rect_395" x="1857.5" y="2256.5" width="5" height="5" transform="rotate(45 1859 2258)" fill="#0062cc"/>
    <rect id="Rect_396" x="1882.5" y="2256.5" width="5" height="5" transform="rotate(45 1884 2258)" fill="#0062cc"/>
    <rect id="Rect_397" x="1632.5" y="2281.5" width="5" height="5" transform="rotate(45 1634 2283)" fill="#0062cc"/>
    <rect id="Rect_398" x="1657.5" y="2281.5" width="5" height="5" transform="rotate(45 1659 2283)" fill="#0062cc"/>
    <rect id="Rect_399" x="1682.5" y="2281.5" width="5" height="5" transform="rotate(45 1684 2283)" fill="#0062cc"/>
    <rect id="Rect_400" x="1707.5" y="2281.5" width="5" height="5" transform="rotate(45 1709 2283)" fill="#0062cc"/>
    <rect id="Rect_401" x="1732.5" y="2281.5" width="5" height="5" transform="rotate(45 1734 2283)" fill="#0062cc"/>
    <rect id="Rect_402" x="1757.5" y="2281.5" width="5" height="5" transform="rotate(45 1759 2283)" fill="#0062cc"/>
    <rect id="Rect_403" x="1782.5" y="2281.5" width="5" height="5" transform="rotate(45 1784 2283)" fill="#0062cc"/>
    <rect id="Rect_404" x="1807.5" y="2281.5" width="5" height="5" transform="rotate(45 1809 2283)" fill="#0062cc"/>
    <rect id="Rect_405" x="1832.5" y="2281.5" width="5" height="5" transform="rotate(45 1834 2283)" fill="#0062cc"/>
    <rect id="Rect_406" x="1857.5" y="2281.5" width="5" height="5" transform="rotate(45 1859 2283)" fill="#0062cc"/>
    <rect id="Rect_407" x="1882.5" y="2281.5" width="5" height="5" transform="rotate(45 1884 2283)" fill="#0062cc"/>
    <rect id="Rect_408" x="1632.5" y="2306.5" width="5" height="5" transform="rotate(45 1634 2308)" fill="#0062cc"/>
    <rect id="Rect_409" x="1657.5" y="2306.5" width="5" height="5" transform="rotate(45 1659 2308)" fill="#0062cc"/>
    <rect id="Rect_410" x="1682.5" y="2306.5" width="5" height="5" transform="rotate(45 1684 2308)" fill="#0062cc"/>
    <rect id="Rect_411" x="1707.5" y="2306.5" width="5" height="5" transform="rotate(45 1709 2308)" fill="#0062cc"/>
    <rect id="Rect_412" x="1732.5" y="2306.5" width="5" height="5" transform="rotate(45 1734 2308)" fill="#0062cc"/>
    <rect id="Rect_413" x="1757.5" y="2306.5" width="5" height="5" transform="rotate(45 1759 2308)" fill="#0062cc"/>
    <rect id="Rect_414" x="1782.5" y="2306.5" width="5" height="5" transform="rotate(45 1784 2308)" fill="#0062cc"/>
    <rect id="Rect_415" x="1807.5" y="2306.5" width="5" height="5" transform="rotate(45 1809 2308)" fill="#0062cc"/>
</g>
</svg>