<?xml version="1.0" encoding="UTF-8"?>
<svg id="Layer_2" data-name="Layer 2" xmlns="http://www.w3.org/2000/svg" viewBox="0 0 758.82 789.65">
  <g id="Layer_1-2" data-name="Layer 1">
    <g>
      <g>
        <path d="m362.98,349.96c4.59,4.59,10.61,6.88,16.62,6.87,6.01.01,12.03-2.28,16.62-6.87l189.1-189.1c9.16-9.16,9.16-24,0-33.16-9.16-9.16-24-9.16-33.16,0l-172.56,172.56L207.04,127.7c-9.16-9.16-24-9.16-33.16,0-9.16,9.16-9.16,24,0,33.16l189.1,189.1Z" style="fill: #00473d; stroke-width: 0px;"/>
        <path d="m751.95,292.22l-.06-.06s0,0,0,0h0l-99.16-99.16c-1.82-1.82-3.87-3.26-6.05-4.36-8.85-4.65-20.05-3.26-27.49,4.18l-239.47,239.47-75.41-75.41-11.52-11.52-85.88-85.88c-9.16-9.16-24-9.16-33.16,0-9.16,9.16-9.16,24,0,33.16l78.48,78.48,21.11,21.11,73.21,73.21-66.44,66.44L57.01,308.79l82.63-82.63c9.16-9.16,9.16-24,0-33.16-9.16-9.16-24-9.16-33.16,0L7.27,292.21h-.01c-9.16,9.17-9.16,24.01,0,33.17h0c.07.07.15.13.22.2l256.15,256.15c9.16,9.16,24,9.16,33.16,0,.6-.6,1.15-1.22,1.67-1.87l81.25-81.25,79.99,79.99c.77,1.09,1.62,2.15,2.6,3.12,8.02,8.02,20.4,9.01,29.51,2.99,1.41-.9,2.75-1.95,3.98-3.18.44-.44.83-.9,1.23-1.36l253.57-253.57c.46-.4.92-.79,1.36-1.23h0c9.16-9.16,9.16-24,0-33.16Zm-272.8,239.51l-66.27-66.27,222.99-222.99,66.27,66.27-222.99,222.99Z" style="fill: #00473d; stroke-width: 0px;"/>
        <circle cx="379.61" cy="83.46" r="83.46" style="fill: #f4c150; stroke-width: 0px;"/>
      </g>
      <g>
        <path d="m1.26,771.26l33.38-93.54h25.2l33.75,93.54c4.24,11.35-1.06,16.88-15.89,16.57h-3.48l-9.16-27.55H28.96l-9.23,27.55h-4.31c-13.22-.2-17.94-5.73-14.15-16.57Zm33.3-29.21h24.82l-12.41-37.39-12.41,37.39Z" style="fill: #f4c150; stroke-width: 0px;"/>
        <path d="m107.3,732.74c0-8.02,1.12-15.49,3.37-22.4,2.25-6.91,5.56-12.92,9.95-18.01,4.39-5.09,9.86-9.11,16.42-12.03,6.56-2.93,14.15-4.39,22.78-4.39,6.21,0,12.08.88,17.63,2.65,5.55,1.77,10.51,4.35,14.87,7.76,4.36,3.41,7.98,7.58,10.86,12.53,1.06,1.92,1.99,3.91,2.8,5.98,3.33,8.93-3.53,13.27-20.59,13.02l-.3-1.51c-.56-2.72-1.5-5.32-2.84-7.8-1.34-2.47-3.07-4.67-5.18-6.58-2.12-1.92-4.62-3.44-7.49-4.58-2.88-1.13-6.13-1.7-9.76-1.7-4.59,0-8.5.85-11.73,2.54-3.23,1.69-6.05,4.05-8.48,7.08-1.56,1.92-2.85,4-3.86,6.24-1.01,2.25-1.82,4.55-2.42,6.92-.61,2.37-1.03,4.77-1.29,7.19-.25,2.42-.38,4.79-.38,7.11,0,2.98.21,5.98.64,9.01s1.11,5.92,2.04,8.67c.93,2.75,2.14,5.31,3.63,7.68,1.49,2.37,3.28,4.43,5.37,6.17,2.09,1.74,4.5,3.12,7.23,4.12,2.72,1.01,5.83,1.51,9.31,1.51s6.86-.49,9.69-1.48c2.83-.98,5.29-2.32,7.38-4.01,2.09-1.69,3.82-3.7,5.18-6.02,1.36-2.32,2.37-4.82,3.03-7.49l.3-1.44c17.41-1.11,24.17,3.08,20.28,12.56-.56,1.31-1.16,2.62-1.82,3.94-2.37,4.64-5.55,8.72-9.54,12.22-3.99,3.51-8.84,6.29-14.57,8.36-5.73,2.07-12.4,3.1-20.02,3.1-8.68,0-16.3-1.45-22.86-4.35-6.56-2.9-12.03-6.9-16.42-12-4.39-5.1-7.7-11.11-9.92-18.05-2.22-6.94-3.33-14.44-3.33-22.52Z" style="fill: #f4c150; stroke-width: 0px;"/>
        <path d="m222.33,771.26l33.38-93.54h25.2l33.75,93.54c4.24,11.35-1.06,16.88-15.89,16.57h-3.48l-9.16-27.55h-36.1l-9.23,27.55h-4.31c-13.22-.2-17.94-5.73-14.15-16.57Zm33.3-29.21h24.82l-12.41-37.39-12.41,37.39Z" style="fill: #f4c150; stroke-width: 0px;"/>
        <path d="m332.15,716.54v-28.99c0-1.82.39-3.35,1.17-4.62.78-1.26,1.84-2.28,3.18-3.06,1.34-.78,2.89-1.34,4.65-1.67,1.77-.33,3.63-.49,5.6-.49h27.02c8.63,0,16.27,1.26,22.93,3.78,6.66,2.52,12.26,6.14,16.8,10.86,4.54,4.72,8,10.46,10.37,17.22,2.37,6.76,3.56,14.41,3.56,22.93s-1.17,16.2-3.52,23.01c-2.35,6.81-5.79,12.61-10.33,17.41-4.54,4.79-10.15,8.48-16.84,11.05-6.69,2.57-14.34,3.86-22.97,3.86h-41.7v-71.14l.08-.15Zm23.84,51.69h15.82c6.31,0,11.48-1.05,15.52-3.14,4.04-2.09,7.23-4.83,9.57-8.21,2.35-3.38,3.97-7.2,4.88-11.47s1.36-8.54,1.36-12.83c0-2.83-.2-5.66-.61-8.51-.4-2.85-1.07-5.58-2-8.17-.93-2.6-2.18-5.03-3.75-7.3-1.56-2.27-3.51-4.24-5.83-5.9-2.32-1.67-5.06-2.98-8.21-3.94-3.15-.96-6.8-1.44-10.94-1.44h-15.82v70.92Z" style="fill: #f4c150; stroke-width: 0px;"/>
        <path d="m517.5,787.83h-65.24c-6.05-.1-9.13-3.81-9.23-11.12l-.08-89.16c0-1.82.39-3.35,1.17-4.62.78-1.26,1.84-2.28,3.18-3.06,1.34-.78,2.89-1.34,4.65-1.67,1.77-.33,3.63-.49,5.6-.49l59.94.08v7.72c0,1.62-.17,3.15-.49,4.62-.33,1.46-.88,2.75-1.67,3.86-.78,1.11-1.8,1.99-3.07,2.65-1.26.66-2.8.98-4.62.98h-40.87v25.28h35.87c1.82,0,3.35.32,4.62.95,1.26.63,2.28,1.51,3.07,2.65.78,1.13,1.34,2.42,1.67,3.86.33,1.44.49,2.99.49,4.65v7.64c-15.34,0-30.58.03-45.71.08v25.28h40.87c1.82,0,3.35.33,4.62.98,1.26.66,2.28,1.54,3.07,2.65.78,1.11,1.34,2.38,1.67,3.82.33,1.44.49,2.99.49,4.65v7.72Z" style="fill: #f4c150; stroke-width: 0px;"/>
        <path d="m636.7,677.71c1.82,0,3.54.16,5.18.49,1.64.33,3.09.88,4.35,1.67,1.26.78,2.26,1.8,2.99,3.06.73,1.26,1.1,2.8,1.1,4.62v83.86h-.08v16.42h-8.63c-1.82,0-3.55-.16-5.18-.49-1.64-.33-3.08-.88-4.31-1.67-1.24-.78-2.22-1.8-2.95-3.06-.73-1.26-1.1-2.8-1.1-4.62v-56.99l-27.47,66h-16.5l-27.62-66.38v57.37c0,1.82-.37,3.36-1.1,4.62-.73,1.26-1.73,2.28-2.99,3.06-1.26.78-2.7,1.34-4.31,1.67-1.62.33-3.33.49-5.15.49h-8.63v-1.74c0-16.55-.01-32.99-.04-49.31s-.04-32.73-.04-49.23c0-1.82.37-3.35,1.1-4.62.73-1.26,1.71-2.28,2.95-3.06,1.24-.78,2.69-1.34,4.35-1.67s3.41-.49,5.22-.49h12.87l31.64,77.12,31.64-77.12h12.71Z" style="fill: #f4c150; stroke-width: 0px;"/>
        <path d="m724.87,777.99c-.05,1.82-.47,3.36-1.25,4.62-.78,1.26-1.83,2.28-3.14,3.06-1.31.78-2.84,1.34-4.58,1.67-1.74.33-3.59.49-5.56.49h-9.16v-42c0-.66-.03-1.08-.08-1.29-.76-2.12-1.59-4.02-2.5-5.71-.91-1.69-1.87-3.32-2.88-4.88-1.11-1.61-2.26-3.27-3.44-4.96-1.19-1.69-2.38-3.62-3.59-5.79l-20.36-33.91c-4.34-7.52-.43-11.38,11.73-11.58h8.17l24.9,44.12,24.82-44.12h9.92c10.39-.1,13.34,3.76,8.85,11.58l-19.38,33.91c-1.26,2.17-2.47,4.1-3.63,5.79-1.16,1.69-2.3,3.34-3.41,4.96-1.01,1.56-1.98,3.18-2.91,4.84-.93,1.67-1.78,3.56-2.54,5.68v33.53Z" style="fill: #f4c150; stroke-width: 0px;"/>
      </g>
    </g>
  </g>
</svg>